<svg xmlns="http://www.w3.org/2000/svg" xmlns:xlink="http://www.w3.org/1999/xlink" width="1366" zoomAndPan="magnify" viewBox="0 0 1024.5 576" height="768" preserveAspectRatio="xMidYMid meet" version="1.0"><defs><clipPath id="38984d3e52"><path d="M 0 227 L 287 227 L 287 575.859375 L 0 575.859375 Z M 0 227 " clip-rule="nonzero"/></clipPath><clipPath id="8a9ea1e83d"><path d="M -0.476562 93.5 L 350.796875 618.820312 L 115.867188 775.910156 L -235.40625 250.59375 Z M -0.476562 93.5 " clip-rule="nonzero"/></clipPath><clipPath id="7f37e09f0f"><path d="M -0.476562 93.5 L 350.796875 618.820312 L 115.867188 775.910156 L -235.40625 250.59375 Z M -0.476562 93.5 " clip-rule="nonzero"/></clipPath><clipPath id="47d7d07219"><path d="M 436 0.140625 L 1024 0.140625 L 1024 487 L 436 487 Z M 436 0.140625 " clip-rule="nonzero"/></clipPath><clipPath id="44e85a63b7"><path d="M 1291.367188 -239.824219 L 1137.105469 587.761719 L 314.679688 434.460938 L 468.941406 -393.125 Z M 1291.367188 -239.824219 " clip-rule="nonzero"/></clipPath><clipPath id="5227c39951"><path d="M 468.917969 -393.128906 L 314.65625 434.457031 L 1137.082031 587.757812 L 1291.34375 -239.828125 Z M 468.917969 -393.128906 " clip-rule="nonzero"/></clipPath></defs><g clip-path="url(#38984d3e52)"><g clip-path="url(#8a9ea1e83d)"><g clip-path="url(#7f37e09f0f)"><path fill="#0275f1" d="M 150.527344 751.761719 C 140.726562 758.960938 130.585938 764.679688 119.984375 769.597656 C 115.464844 771.667969 113.0625 771.03125 109.933594 767.03125 C 109.042969 765.875 108.136719 764.691406 107.480469 763.421875 C 96.59375 742.648438 82.496094 723.953125 69.585938 704.535156 C -20.359375 569.058594 -110.441406 433.710938 -200.546875 298.339844 C -208.097656 286.988281 -215.96875 275.847656 -223.636719 264.609375 C -225.5625 261.785156 -227.539062 259 -229.132812 255.992188 C -231.640625 251.273438 -230.671875 247.429688 -225.980469 244.9375 C -221.699219 242.6875 -217.132812 240.925781 -212.570312 239.320312 C -187.066406 230.335938 -160.898438 225.585938 -133.773438 227.621094 C -97.460938 230.359375 -67.929688 245.78125 -44.367188 273.675781 C -30.3125 290.3125 -20.863281 309.453125 -13.09375 329.265625 C -4.007812 352.417969 9.691406 372.21875 26.371094 389.992188 C 40.921875 405.492188 59.574219 415.285156 79.492188 422.363281 C 101.625 430.25 124.648438 434.226562 147.878906 437.035156 C 164.316406 439.023438 180.710938 441.457031 196.789062 445.355469 C 221.15625 451.289062 241.285156 464.089844 257.476562 483.40625 C 270.863281 499.382812 279.800781 517.308594 284.324219 537.613281 C 288.339844 555.632812 286.910156 573.523438 282.640625 591.105469 C 275.515625 620.457031 260.773438 646.222656 242.144531 669.644531 C 223.609375 692.921875 202.15625 713.316406 178.210938 731.121094 C 168.832031 738.039062 160.296875 746.105469 150.527344 751.761719 Z M 150.527344 751.761719 " fill-opacity="1" fill-rule="nonzero"/></g></g></g><g clip-path="url(#47d7d07219)"><g clip-path="url(#44e85a63b7)"><g clip-path="url(#5227c39951)"><path fill="#c644f5" d="M 640.933594 -344.503906 C 636.710938 -344.484375 632.492188 -344.335938 628.277344 -344.058594 C 624.0625 -343.78125 619.863281 -343.378906 615.671875 -342.84375 C 611.484375 -342.3125 607.316406 -341.652344 603.164062 -340.867188 C 599.015625 -340.078125 594.894531 -339.167969 590.800781 -338.128906 C 586.707031 -337.089844 582.648438 -335.929688 578.628906 -334.644531 C 574.605469 -333.359375 570.625 -331.953125 566.6875 -330.425781 C 562.75 -328.902344 558.863281 -327.253906 555.027344 -325.492188 C 551.1875 -323.726562 547.410156 -321.847656 543.6875 -319.855469 C 539.964844 -317.859375 536.304688 -315.757812 532.710938 -313.539062 C 529.117188 -311.324219 525.59375 -309 522.140625 -306.566406 C 518.6875 -304.136719 515.308594 -301.601562 512.011719 -298.964844 C 508.710938 -296.328125 505.496094 -293.59375 502.363281 -290.761719 C 499.234375 -287.929688 496.191406 -285.003906 493.234375 -281.988281 C 490.28125 -278.96875 487.421875 -275.863281 484.65625 -272.671875 C 481.890625 -269.480469 479.226562 -266.207031 476.660156 -262.851562 C 474.09375 -259.5 471.632812 -256.070312 469.277344 -252.566406 C 466.988281 -249.015625 464.8125 -245.398438 462.746094 -241.714844 C 460.679688 -238.03125 458.726562 -234.285156 456.886719 -230.484375 C 455.050781 -226.679688 453.328125 -222.824219 451.726562 -218.917969 C 450.121094 -215.011719 448.636719 -211.058594 447.273438 -207.058594 C 445.910156 -203.0625 444.671875 -199.027344 443.554688 -194.953125 C 442.4375 -190.878906 441.445312 -186.777344 440.578125 -182.644531 C 439.707031 -178.507812 438.96875 -174.351562 438.355469 -170.171875 C 437.738281 -165.996094 437.253906 -161.800781 436.894531 -157.59375 C 436.535156 -153.382812 436.304688 -149.167969 436.203125 -144.945312 C 436.101562 -140.722656 436.125 -136.5 436.28125 -132.28125 C 436.4375 -128.058594 436.71875 -123.847656 437.128906 -119.644531 C 437.542969 -115.441406 438.082031 -111.253906 438.746094 -107.082031 C 439.414062 -102.910156 440.207031 -98.761719 441.125 -94.640625 C 442.042969 -90.519531 443.085938 -86.425781 444.253906 -82.367188 C 445.421875 -78.308594 446.714844 -74.289062 448.125 -70.308594 C 449.539062 -66.328125 451.070312 -62.394531 452.722656 -58.507812 C 470.417969 -17.976562 501.394531 17.300781 509.378906 60.800781 C 515.679688 95.035156 506.777344 130.285156 496.105469 163.28125 C 480.320312 211.683594 460.160156 259.46875 455.84375 310.296875 C 451.53125 361.128906 466.492188 417.09375 508.003906 446.523438 C 553.222656 478.597656 614.851562 470.636719 668.511719 456.792969 C 722.171875 442.945312 778.363281 424.4375 831.71875 439.894531 C 860.921875 448.253906 886.371094 466.410156 914.898438 476.800781 C 992.796875 505.136719 1085.261719 469.078125 1134.71875 402.554688 C 1184.171875 336.027344 1194.21875 245.683594 1174.746094 165.117188 C 1160.601562 106.648438 1132.085938 50.984375 1129.851562 -9.140625 C 1127.941406 -61.453125 1146.050781 -115.277344 1130.65625 -165.320312 C 1109.828125 -233.136719 1036.195312 -268.554688 968.480469 -289.253906 C 924.964844 -302.53125 880.789062 -313.035156 835.957031 -320.769531 C 791.121094 -328.5 745.980469 -333.398438 700.53125 -335.464844 " fill-opacity="1" fill-rule="nonzero"/></g></g></g></svg>