<svg xmlns="http://www.w3.org/2000/svg" xmlns:xlink="http://www.w3.org/1999/xlink" width="500" zoomAndPan="magnify" viewBox="0 0 375 374.999991" height="500" preserveAspectRatio="xMidYMid meet" version="1.0"><defs><clipPath id="02a12db406"><path d="M 54.753906 54.753906 L 320.246094 54.753906 L 320.246094 320.246094 L 54.753906 320.246094 Z M 54.753906 54.753906 " clip-rule="nonzero"/></clipPath><clipPath id="36c5217d9c"><path d="M 187.5 54.753906 C 114.1875 54.753906 54.753906 114.1875 54.753906 187.5 C 54.753906 260.8125 114.1875 320.246094 187.5 320.246094 C 260.8125 320.246094 320.246094 260.8125 320.246094 187.5 C 320.246094 114.1875 260.8125 54.753906 187.5 54.753906 Z M 187.5 54.753906 " clip-rule="nonzero"/></clipPath></defs><g clip-path="url(#02a12db406)"><g clip-path="url(#36c5217d9c)"><path fill="#e2e2e1" d="M 54.753906 54.753906 L 320.246094 54.753906 L 320.246094 320.246094 L 54.753906 320.246094 Z M 54.753906 54.753906 " fill-opacity="1" fill-rule="nonzero"/></g></g><path fill="#ef5350" d="M 187.507812 375.015625 C 290.785156 375.015625 375.015625 290.785156 375.015625 187.507812 C 375.015625 84.230469 290.785156 0 187.507812 0 C 84.230469 0 0 84.230469 0 187.507812 C 0 290.785156 84.230469 375.015625 187.507812 375.015625 " fill-opacity="1" fill-rule="evenodd"/><path fill="#fffffe" d="M 89.734375 125.503906 L 286.375 125.503906 L 189.828125 191.328125 L 88.898438 125.503906 Z M 290.050781 134.519531 L 192.574219 200.976562 L 189.957031 202.765625 L 187.304688 201.035156 L 84.964844 134.292969 L 84.964844 249.507812 L 290.050781 249.507812 L 290.050781 134.519531 " fill-opacity="1" fill-rule="nonzero"/></svg>