<svg xmlns="http://www.w3.org/2000/svg" xmlns:xlink="http://www.w3.org/1999/xlink" width="500" zoomAndPan="magnify" viewBox="0 0 375 374.999991" height="500" preserveAspectRatio="xMidYMid meet" version="1.0"><path fill="#508d95" d="M 324.140625 319.351562 C 347.855469 308.648438 365.292969 281.433594 358.160156 256.464844 C 355.78125 248.273438 351.15625 240.941406 347.855469 233.078125 C 341.777344 218.414062 340.589844 201.769531 344.683594 186.441406 C 351.820312 159.292969 374.675781 134.917969 369.589844 107.304688 C 367.34375 94.953125 359.546875 84.25 350.960938 75.070312 C 312.382812 33.71875 251.742188 14.296875 196.386719 25.527344 C 180.199219 28.761719 164.082031 34.773438 151.992188 45.9375 C 131.253906 65.160156 125.042969 97.199219 102.386719 114.242188 C 79 131.8125 44.121094 128.773438 22.257812 148.261719 C 0.457031 167.75 0.324219 201.835938 6.402344 230.503906 C 9.175781 243.449219 12.941406 256.597656 21.066406 267.035156 C 43.726562 296.296875 89.4375 294.449219 118.4375 317.5 C 127.488281 324.703125 134.554688 334.082031 143.539062 341.347656 C 160.382812 355.152344 183.703125 360.703125 204.972656 356.011719 C 226.707031 351.257812 236.546875 330.449219 255.375 324.503906 C 264.488281 321.664062 276.25 326.023438 285.496094 326.285156 C 298.707031 326.75 311.984375 324.832031 324.140625 319.351562 Z M 324.140625 319.351562 " fill-opacity="1" fill-rule="nonzero"/><path fill="#fff8ee" d="M 308.242188 101.722656 C 305.535156 71.863281 288.738281 43.589844 263.816406 26.957031 C 238.894531 10.324219 206.363281 5.664062 177.785156 14.644531 C 149.203125 23.617188 125.160156 46.046875 114.195312 73.949219 C 105.246094 96.742188 105.257812 123.792969 117.90625 144.753906 C 130.558594 165.71875 156.964844 178.648438 181.363281 171.0625 C 176.390625 163.75 177.742188 153.191406 183.46875 146.453125 C 189.195312 139.714844 198.492188 136.644531 207.308594 137.210938 C 216.128906 137.78125 224.484375 141.636719 231.664062 146.792969 C 238.84375 151.945312 244.992188 158.382812 250.617188 167.007812 C 266.246094 166.191406 281.429688 158.816406 291.734375 147.027344 C 302.042969 135.238281 309.824219 119.148438 308.242188 101.726562 Z M 308.242188 101.722656 " fill-opacity="1" fill-rule="nonzero"/><path fill="#fff8ee" d="M 197.582031 189.425781 C 193.753906 190.320312 190.46875 193.265625 189.167969 196.972656 C 185.628906 191.34375 179.613281 188.382812 174.578125 189.960938 C 169.542969 191.539062 166.277344 197.40625 167.605469 202.523438 C 162.898438 199.113281 157.238281 197.953125 153.15625 200.222656 C 149.070312 202.496094 147.074219 207.925781 148.710938 212.308594 C 145.089844 212.570312 141.566406 214.800781 141.371094 217.773438 C 137.367188 214.8125 131.714844 214.28125 127.230469 216.4375 C 122.746094 218.59375 119.628906 223.355469 119.441406 228.328125 C 113.601562 217.757812 114.515625 204.402344 119.457031 193.375 C 124.398438 182.355469 132.921875 173.339844 142.976562 165.933594 C 155.867188 170.609375 169.738281 172.570312 183.417969 171.660156 C 184.875 179.234375 190.109375 185.980469 197.585938 189.429688 Z M 197.582031 189.425781 " fill-opacity="1" fill-rule="nonzero"/><path fill="#fff8ee" d="M 319.234375 214.621094 C 335.320312 240.3125 341.664062 271.953125 336.71875 301.863281 C 329.144531 287.164062 311.644531 280.421875 295.488281 280.109375 C 276.132812 279.742188 256.722656 286.859375 242.191406 299.664062 C 244.46875 278.363281 244.71875 256.570312 242.652344 234.421875 C 253.554688 246.082031 270.996094 251.164062 286.449219 247.175781 C 301.898438 243.191406 314.714844 230.300781 319.226562 214.621094 Z M 319.234375 214.621094 " fill-opacity="1" fill-rule="nonzero"/><path fill="#ffe6c3" d="M 179.6875 150.292969 C 177.992188 150.257812 176.257812 150.101562 174.730469 149.363281 C 173.207031 148.628906 171.914062 147.207031 171.753906 145.519531 C 171.59375 143.828125 172.863281 142.015625 174.558594 141.941406 C 171.078125 140.125 169.914062 134.972656 172.28125 131.839844 C 174.644531 128.710938 179.917969 128.417969 182.613281 131.273438 C 182.675781 129.394531 183.921875 127.613281 185.660156 126.90625 C 187.402344 126.203125 189.535156 126.613281 191.4375 128.429688 C 191.699219 126.253906 192.910156 124.082031 194.917969 123.210938 C 197.769531 121.96875 201.207031 123.808594 202.8125 126.480469 C 204.414062 129.148438 204.644531 132.394531 204.835938 135.503906 C 196.074219 135.476562 187.421875 140.0625 179.6875 150.292969 Z M 179.6875 150.292969 " fill-opacity="1" fill-rule="nonzero"/><path fill="#ffe6c3" d="M 243.503906 236.789062 C 244.890625 233.503906 244.214844 229.449219 241.832031 226.800781 C 239.453125 224.148438 235.496094 223.039062 232.089844 224.070312 C 233.488281 221.207031 233.980469 217.835938 233.042969 214.796875 C 232.101562 211.753906 229.609375 209.140625 226.503906 208.445312 C 223.398438 207.75 219.828125 209.242188 218.460938 212.117188 C 217.144531 207.988281 216.207031 205.785156 214.488281 204.675781 C 212.769531 203.566406 210.378906 203.605469 208.707031 204.78125 C 210.640625 199.746094 208.171875 193.429688 203.335938 191.046875 C 198.5 188.664062 191.996094 190.546875 189.183594 195.152344 C 186.527344 190.703125 180.289062 188.132812 175.117188 189.839844 C 169.949219 191.550781 166.472656 197.34375 167.394531 202.71875 C 163.640625 198.074219 156.824219 197.1875 152.121094 200.207031 C 147.417969 203.226562 145.371094 209.792969 147.527344 214.953125 C 145.898438 213.921875 143.726562 213.8125 142 214.675781 C 140.273438 215.535156 139.058594 217.347656 138.90625 219.273438 C 134.640625 216.105469 129.617188 216.183594 125.738281 218.410156 C 121.859375 220.640625 119.261719 224.949219 117.726562 230.382812 C 118.859375 231.832031 119.988281 233.289062 121.066406 235.53125 C 160.820312 224.320312 203.984375 225.574219 243.5 236.792969 Z M 243.503906 236.789062 " fill-opacity="1" fill-rule="nonzero"/><path fill="#ed818a" d="M 243.550781 237.652344 C 242.941406 258.15625 242.332031 278.660156 241.722656 299.160156 C 235.722656 307.058594 225.355469 311.367188 215.722656 309.785156 C 210.984375 309.003906 206.074219 306.9375 201.554688 308.574219 C 196.269531 310.484375 193.898438 316.628906 193.039062 322.1875 C 190.445312 339.046875 196.324219 357 208.386719 369.046875 C 184.910156 374.296875 160.472656 370.59375 136.707031 366.878906 C 130.488281 365.90625 123.988281 364.816406 118.960938 361.023438 C 110.800781 354.859375 108.855469 343.398438 109.253906 333.171875 C 109.65625 322.945312 111.71875 312.5 109.066406 302.613281 C 118.40625 303.535156 128.265625 304.992188 137.605469 302.546875 C 146.945312 300.101562 155.699219 292.683594 156.554688 283.058594 C 157.460938 272.925781 149.808594 264.199219 142.277344 257.371094 C 134.746094 250.542969 126.257812 243.304688 123.8125 235.351562 C 162.042969 224.617188 203.46875 225.578125 243.550781 237.65625 Z M 243.550781 237.652344 " fill-opacity="1" fill-rule="nonzero"/><path fill="#e8ded5" d="M 105.355469 65.164062 C 105.84375 76.894531 106.328125 88.628906 107.28125 100.617188 C 123.351562 101.714844 139.453125 102.363281 155.804688 102.191406 C 156.882812 98.722656 158.273438 95.300781 160.523438 92.453125 C 162.773438 89.609375 165.972656 87.382812 169.570312 86.914062 C 173.164062 86.445312 177.101562 88.003906 178.914062 91.148438 C 179.800781 92.691406 180.144531 94.484375 180.804688 96.136719 C 181.46875 97.789062 182.613281 99.421875 185.796875 100.695312 C 203.546875 100.6875 221.292969 100.675781 237.585938 100.863281 C 240.640625 94.824219 243.699219 88.792969 246.910156 83.664062 C 266.066406 91.5625 285.222656 99.46875 304.378906 107.371094 C 306.78125 108.359375 310.019531 109.148438 311.582031 107.070312 C 313.136719 104.992188 311.464844 102.078125 309.671875 100.207031 C 302.105469 92.289062 291.871094 87.585938 281.859375 83.152344 C 270.871094 78.289062 259.835938 73.53125 248.753906 68.882812 L 248.570312 66.808594 Z M 105.355469 65.164062 " fill-opacity="1" fill-rule="nonzero"/><path fill="#ed818a" d="M 118.433594 76.679688 C 118.808594 80.375 119.195312 84.074219 119.574219 87.773438 C 129.191406 87.6875 138.804688 87.601562 148.421875 87.519531 C 148.382812 84.125 148.347656 80.726562 148.304688 77.335938 Z M 118.433594 76.679688 " fill-opacity="1" fill-rule="nonzero"/><path fill="#03bce3" d="M 189.578125 75.855469 C 189.964844 80.097656 190.355469 84.335938 190.742188 88.578125 C 202.121094 87.640625 213.574219 87.621094 224.957031 88.523438 L 224.984375 77.992188 Z M 189.578125 75.855469 " fill-opacity="1" fill-rule="nonzero"/><path fill="#fff8ee" d="M 210.269531 231.613281 C 209.21875 230.496094 207.164062 231.328125 207.214844 232.878906 C 206.972656 257.679688 206.089844 282.582031 206.164062 307.339844 C 206.800781 309.109375 209.660156 308.542969 209.589844 306.648438 C 209.90625 287.460938 210.222656 268.269531 210.53125 249.074219 C 210.621094 243.679688 210.710938 238.277344 210.792969 232.878906 C 210.792969 232.40625 210.601562 231.949219 210.269531 231.613281 Z M 210.269531 231.613281 " fill-opacity="1" fill-rule="nonzero"/><path fill="#fff8ee" d="M 121.910156 320.0625 C 121.800781 316.066406 121.699219 312.070312 121.601562 308.074219 C 121.601562 307.613281 121.410156 307.167969 121.089844 306.84375 C 120.070312 305.761719 118.074219 306.570312 118.121094 308.074219 C 118.882812 326.5 118.679688 345.128906 120.207031 363.449219 C 121.570312 365.230469 123.445312 363.726562 123.214844 361.785156 C 122.710938 347.878906 122.277344 333.96875 121.910156 320.0625 Z M 121.910156 320.0625 " fill-opacity="1" fill-rule="nonzero"/><path fill="#fff8ee" d="M 230.191406 254.609375 C 230.101562 248.617188 229.871094 242.632812 229.710938 236.644531 C 229.710938 236.046875 229.46875 235.46875 229.046875 235.042969 C 227.71875 233.625 225.117188 234.683594 225.179688 236.644531 C 225.835938 261.054688 228.117188 285.613281 225.589844 309.910156 C 226.503906 311.882812 229.109375 310.9375 229.078125 308.863281 C 231.492188 290.878906 230.265625 272.6875 230.191406 254.609375 Z M 230.191406 254.609375 " fill-opacity="1" fill-rule="nonzero"/><path fill="#fff8ee" d="M 145.5 234.316406 C 145.5 232.210938 142.28125 232.195312 142.265625 234.316406 C 141.605469 242.980469 140.898438 251.8125 141.636719 260.460938 C 142.007812 261.554688 143.585938 261.832031 144.363281 261 C 145.019531 260.355469 144.851562 259.402344 144.835938 258.566406 C 144.578125 250.480469 144.757812 242.375 145.492188 234.316406 Z M 145.5 234.316406 " fill-opacity="1" fill-rule="nonzero"/><path fill="#fff8ee" d="M 197.824219 279.851562 C 195.257812 276.828125 191.84375 275.078125 188.148438 273.992188 C 188.242188 270.820312 188.332031 267.644531 188.425781 264.472656 C 188.71875 253.648438 189.015625 242.820312 189.304688 231.992188 C 189.304688 229.554688 185.476562 229.417969 185.457031 231.992188 C 185.132812 245.683594 184.714844 259.386719 184.285156 273.089844 C 182.207031 272.710938 180.113281 272.460938 178.082031 272.269531 C 174.242188 271.882812 170.378906 271.722656 166.515625 271.730469 C 166.527344 269.800781 166.515625 267.875 166.53125 265.945312 C 166.59375 254.628906 166.726562 243.316406 166.921875 232 C 166.921875 229.871094 163.558594 229.734375 163.539062 232 C 163.214844 245.257812 163.027344 258.519531 162.925781 271.777344 C 161.179688 271.835938 159.4375 271.9375 157.695312 272.074219 C 157.214844 272.066406 156.738281 272.222656 156.335938 272.484375 C 155.199219 272.6875 154.179688 273.621094 154.222656 274.914062 C 154.738281 284.414062 149.367188 294.957031 142.1875 299.957031 C 141.179688 299.511719 139.726562 300.117188 139.703125 301.410156 C 137.953125 302.261719 136.136719 302.796875 134.292969 302.886719 C 133.511719 302.886719 132.917969 303.183594 132.511719 303.625 C 130.941406 303.550781 129.40625 305.09375 129.929688 306.769531 C 131.117188 311.945312 134.417969 315.117188 138.601562 317.160156 C 137.976562 329.125 137.839844 341.117188 138.371094 353.089844 C 138.824219 358.183594 138.414062 365.398438 139.878906 368.773438 C 140.378906 369.699219 141.847656 369.808594 142.445312 368.929688 C 142.871094 368.457031 142.730469 367.746094 143.011719 367.195312 C 142.199219 352.371094 141.582031 337.46875 142.039062 322.601562 C 142.039062 321.265625 142.09375 319.925781 142.140625 318.585938 C 147.097656 320.203125 152.710938 320.765625 157.433594 321.335938 C 159.226562 321.539062 161.042969 321.703125 162.878906 321.820312 C 162.941406 333.007812 163.074219 344.191406 163.289062 355.375 C 163.699219 360.597656 162.816406 366.105469 164.199219 371.171875 C 164.765625 372.222656 166.441406 372.355469 167.121094 371.347656 C 167.636719 370.597656 167.707031 369.519531 167.777344 368.621094 C 167.351562 353.074219 167.003906 337.527344 166.769531 321.976562 C 172.210938 322.0625 177.683594 321.566406 182.851562 320.109375 C 182.378906 337.332031 182.003906 354.542969 181.871094 371.738281 C 182.25 372.84375 183.847656 373.132812 184.636719 372.285156 C 185.351562 371.523438 185.136719 370.375 185.285156 369.414062 C 185.871094 352.523438 186.375 335.632812 186.867188 318.742188 C 189.515625 317.679688 192.050781 316.328125 194.421875 314.589844 C 204.949219 307.652344 205.226562 289.105469 197.828125 279.859375 Z M 197.824219 279.851562 " fill-opacity="1" fill-rule="nonzero"/><path fill="#531139" d="M 172.738281 217.628906 C 171.320312 216.445312 170.035156 214.980469 168.261719 214.332031 C 164.476562 212.75 159.824219 214.890625 158.523438 218.773438 C 157.316406 220.914062 160.070312 222.667969 161.082031 220.367188 C 161.980469 216.40625 166.546875 216.347656 168.023438 217.613281 C 169.164062 218.445312 170.050781 219.835938 171.492188 220.144531 C 172.84375 220.414062 173.746094 218.5625 172.742188 217.628906 Z M 172.738281 217.628906 " fill-opacity="1" fill-rule="nonzero"/><path fill="#531139" d="M 200.59375 216.667969 C 199.273438 213.355469 196.371094 212.765625 194.066406 213.542969 C 193.582031 210.449219 192.304688 207.410156 189.335938 206.046875 C 185.121094 203.953125 179.863281 206.710938 178.636719 211.128906 C 178.113281 213.074219 181.046875 213.875 181.597656 211.949219 C 182.78125 208.273438 188.054688 206.960938 189.882812 211.175781 C 190.296875 211.964844 190.738281 213.863281 190.785156 215.328125 C 190.902344 216.273438 190.675781 217.507812 191.5625 218.125 C 192.238281 218.71875 193.449219 218.5625 193.949219 217.816406 C 194.058594 217.714844 194.175781 217.460938 194.253906 217.265625 C 194.386719 217.109375 194.535156 216.96875 194.691406 216.835938 C 194.796875 216.769531 194.917969 216.6875 195.015625 216.640625 C 195.707031 216.394531 196.675781 216.246094 197.417969 217.65625 L 197.433594 217.6875 C 197.433594 217.6875 197.449219 217.726562 197.460938 217.757812 C 197.625 218.578125 197.867188 219.480469 198.785156 219.714844 C 200.613281 220.148438 201.234375 218.050781 200.585938 216.664062 Z M 200.59375 216.667969 " fill-opacity="1" fill-rule="nonzero"/><path fill="#531139" d="M 306.15625 98.777344 C 305.230469 98.777344 304.449219 98.066406 304.375 97.128906 C 302.253906 71.277344 286.523438 42.945312 266.976562 29.765625 C 246.875 16.21875 222.78125 10.0625 197.335938 11.972656 C 179.570312 13.304688 163.949219 18.015625 150.921875 25.980469 C 137.5 34.179688 125.355469 49.582031 119.976562 65.214844 C 119.65625 66.152344 118.636719 66.648438 117.703125 66.324219 C 116.765625 66.003906 116.273438 64.984375 116.59375 64.046875 C 122.222656 47.671875 134.964844 31.53125 149.054688 22.917969 C 162.578125 14.660156 178.730469 9.773438 197.066406 8.394531 C 223.339844 6.421875 248.203125 12.78125 268.980469 26.789062 C 289.355469 40.53125 305.742188 69.980469 307.949219 96.828125 C 308.027344 97.820312 307.296875 98.679688 306.308594 98.761719 C 306.257812 98.761719 306.210938 98.765625 306.164062 98.765625 Z M 306.15625 98.777344 " fill-opacity="1" fill-rule="nonzero"/><path fill="#531139" d="M 138.257812 103.601562 C 127.808594 103.601562 117.347656 103.070312 106.984375 102.011719 C 106.101562 101.921875 105.425781 101.199219 105.378906 100.316406 L 103.679688 65.480469 C 103.660156 64.988281 103.832031 64.511719 104.171875 64.152344 C 104.515625 63.796875 104.929688 63.597656 105.472656 63.601562 L 249.34375 63.878906 C 249.875 63.878906 250.378906 64.117188 250.714844 64.527344 C 251.058594 64.933594 251.195312 65.472656 251.097656 65.996094 C 248.871094 78.109375 245.253906 89.96875 240.363281 101.257812 C 240.078125 101.910156 239.433594 102.335938 238.722656 102.335938 L 238.71875 102.335938 L 192.558594 102.214844 C 189.707031 102.210938 185.804688 102.199219 182.761719 100.070312 C 180.523438 98.496094 179.265625 96.199219 178.046875 93.980469 C 176.980469 92.023438 175.964844 90.175781 174.398438 89.085938 C 171.414062 87.019531 166.910156 88.351562 164.28125 90.839844 C 161.234375 93.722656 159.609375 98.0625 158.175781 101.890625 C 157.929688 102.554688 157.3125 103.003906 156.605469 103.046875 C 150.507812 103.410156 144.378906 103.59375 138.25 103.59375 Z M 108.878906 98.601562 C 124.246094 100.089844 139.828125 100.40625 155.238281 99.542969 C 156.71875 95.636719 158.492188 91.390625 161.824219 88.234375 C 165.4375 84.808594 171.792969 82.917969 176.4375 86.140625 C 178.699219 87.707031 179.964844 90.023438 181.183594 92.257812 C 182.246094 94.203125 183.253906 96.046875 184.808594 97.136719 C 186.769531 98.511719 189.484375 98.628906 192.5625 98.632812 L 237.539062 98.753906 C 241.8125 88.699219 245.046875 78.1875 247.171875 67.457031 L 107.34375 67.1875 Z M 108.878906 98.601562 " fill-opacity="1" fill-rule="nonzero"/><path fill="#531139" d="M 308.179688 109.828125 C 306.457031 109.828125 304.449219 109.347656 302.230469 108.382812 C 296.128906 105.714844 284.898438 101.175781 274.035156 96.789062 C 263.191406 92.40625 251.976562 87.878906 245.847656 85.199219 C 244.941406 84.804688 244.53125 83.746094 244.925781 82.84375 C 245.316406 81.9375 246.375 81.523438 247.277344 81.917969 C 253.363281 84.574219 264.554688 89.097656 275.375 93.46875 C 286.257812 97.867188 297.515625 102.417969 303.660156 105.097656 C 306.164062 106.1875 309.425781 106.886719 310.394531 105.273438 C 310.914062 104.394531 310.53125 103.074219 309.882812 102.214844 C 308.988281 101.039062 307.492188 100.175781 306.171875 99.414062 C 287.792969 88.839844 268.625 79.140625 249.21875 70.582031 C 248.3125 70.183594 247.902344 69.125 248.304688 68.21875 C 248.703125 67.316406 249.75 66.90625 250.664062 67.304688 C 270.1875 75.914062 289.464844 85.671875 307.960938 96.308594 C 309.5 97.199219 311.414062 98.296875 312.742188 100.058594 C 314.113281 101.875 314.871094 104.757812 313.472656 107.113281 C 312.394531 108.921875 310.566406 109.839844 308.1875 109.839844 Z M 308.179688 109.828125 " fill-opacity="1" fill-rule="nonzero"/><path fill="#531139" d="M 175.386719 174.839844 C 156.214844 174.839844 138.503906 168.511719 125.867188 156.949219 C 109.617188 142.078125 103.355469 118.542969 110.628906 99.726562 C 110.984375 98.800781 112.027344 98.351562 112.941406 98.703125 C 113.863281 99.058594 114.320312 100.097656 113.964844 101.015625 C 107.210938 118.492188 113.097656 140.40625 128.285156 154.304688 C 141.988281 166.84375 162.074219 172.886719 183.382812 170.878906 C 184.375 170.792969 185.234375 171.507812 185.332031 172.492188 C 185.425781 173.476562 184.699219 174.347656 183.71875 174.445312 C 180.914062 174.707031 178.136719 174.839844 175.386719 174.839844 Z M 175.386719 174.839844 " fill-opacity="1" fill-rule="nonzero"/><path fill="#531139" d="M 256.726562 168.074219 C 255.851562 168.074219 255.082031 167.425781 254.957031 166.53125 C 254.820312 165.554688 255.503906 164.648438 256.480469 164.511719 C 269.625 162.671875 282.066406 155.785156 290.617188 145.625 C 299.167969 135.464844 303.828125 122.027344 303.414062 108.75 C 303.382812 107.761719 304.160156 106.933594 305.148438 106.902344 C 306.105469 106.796875 306.960938 107.644531 306.992188 108.640625 C 307.441406 122.785156 302.46875 137.105469 293.355469 147.933594 C 284.246094 158.757812 270.988281 166.097656 256.980469 168.058594 C 256.894531 168.070312 256.8125 168.074219 256.726562 168.074219 Z M 256.726562 168.074219 " fill-opacity="1" fill-rule="nonzero"/><path fill="#531139" d="M 243.210938 238.320312 C 243.09375 238.320312 242.980469 238.308594 242.863281 238.289062 C 241.890625 238.09375 241.261719 237.15625 241.457031 236.183594 C 241.96875 233.578125 241.414062 229.664062 239.957031 228.71875 C 237.796875 227.308594 234.375 226.457031 232.90625 227.476562 C 232.269531 227.925781 231.417969 227.910156 230.800781 227.433594 C 230.183594 226.96875 229.933594 226.152344 230.191406 225.421875 C 231.484375 221.695312 231.773438 216.109375 228.316406 212.621094 C 226.777344 211.070312 224.238281 210.324219 221.871094 210.71875 C 220.789062 210.902344 218.835938 211.492188 217.90625 213.410156 C 217.503906 214.242188 216.542969 214.632812 215.675781 214.3125 C 214.816406 213.992188 214.332031 213.070312 214.5625 212.179688 C 214.894531 210.90625 214.324219 209.386719 213.238281 208.644531 C 212.148438 207.90625 210.527344 207.929688 209.464844 208.710938 C 208.765625 209.21875 207.804688 209.15625 207.171875 208.5625 C 206.546875 207.96875 206.4375 207.003906 206.910156 206.277344 C 208.246094 204.242188 208.617188 201.550781 207.925781 198.894531 C 207.234375 196.238281 205.601562 194.066406 203.441406 192.933594 C 201.28125 191.808594 198.570312 191.699219 195.996094 192.648438 C 193.425781 193.601562 191.421875 195.4375 190.519531 197.699219 C 190.261719 198.335938 189.660156 198.773438 188.976562 198.820312 C 188.273438 198.851562 187.644531 198.507812 187.300781 197.914062 C 184.679688 193.285156 179.34375 190.636719 175.175781 191.882812 C 170.953125 193.144531 168.15625 198.179688 169.304688 202.445312 C 169.53125 203.269531 169.144531 204.132812 168.382812 204.515625 C 167.625 204.894531 166.695312 204.691406 166.167969 204.015625 C 163.378906 200.425781 157.726562 199.363281 153.828125 201.691406 C 149.929688 204.015625 148.171875 209.5 150.003906 213.660156 C 150.324219 214.386719 150.128906 215.238281 149.523438 215.746094 C 148.917969 216.257812 148.046875 216.308594 147.386719 215.878906 C 146.480469 215.285156 145.316406 215.578125 144.519531 216.050781 C 143.765625 216.503906 142.914062 217.414062 143.007812 218.492188 C 143.070312 219.207031 142.691406 219.898438 142.054688 220.230469 C 141.414062 220.566406 140.640625 220.480469 140.085938 220.023438 C 137.078125 217.539062 132.636719 216.871094 129.042969 218.371094 C 125.4375 219.867188 122.773438 223.480469 122.40625 227.367188 C 122.3125 228.355469 121.449219 229.113281 120.457031 228.980469 C 119.472656 228.886719 118.746094 228.015625 118.84375 227.03125 C 119.324219 221.859375 122.871094 217.050781 127.667969 215.0625 C 131.601562 213.425781 136.289062 213.734375 140.058594 215.726562 C 140.617188 214.636719 141.515625 213.675781 142.6875 212.976562 C 143.691406 212.375 144.773438 212.042969 145.828125 211.976562 C 145.066406 206.839844 147.46875 201.308594 151.996094 198.609375 C 156.136719 196.136719 161.515625 196.367188 165.582031 198.804688 C 166.226562 194.132812 169.558594 189.824219 174.152344 188.453125 C 179.117188 186.957031 184.960938 189.183594 188.714844 193.691406 C 190.1875 191.746094 192.285156 190.199219 194.757812 189.289062 C 198.273438 187.988281 202.046875 188.15625 205.101562 189.757812 C 208.15625 191.355469 210.445312 194.355469 211.394531 197.988281 C 211.964844 200.199219 211.992188 202.449219 211.5 204.515625 C 212.816406 204.53125 214.136719 204.921875 215.25 205.679688 C 216.308594 206.398438 217.121094 207.414062 217.632812 208.554688 C 218.6875 207.878906 219.929688 207.40625 221.285156 207.179688 C 224.828125 206.589844 228.488281 207.703125 230.859375 210.097656 C 234.023438 213.285156 235.289062 218.296875 234.398438 223.449219 C 237.113281 223.355469 240.105469 224.535156 241.917969 225.714844 C 245.128906 227.808594 245.640625 233.5 244.976562 236.878906 C 244.808594 237.730469 244.058594 238.324219 243.222656 238.324219 Z M 243.210938 238.320312 " fill-opacity="1" fill-rule="nonzero"/><path fill="#531139" d="M 241.386719 300.898438 C 241.324219 300.898438 241.253906 300.898438 241.1875 300.890625 C 240.203125 300.777344 239.496094 299.894531 239.605469 298.910156 C 241.542969 281.410156 242.632812 259.394531 242.53125 239.777344 C 205.402344 224.558594 163.195312 230.375 125.90625 235.511719 C 124.902344 235.664062 124.023438 234.957031 123.886719 233.980469 C 123.75 232.996094 124.433594 232.097656 125.417969 231.960938 C 163.519531 226.710938 206.714844 220.753906 245.011719 236.925781 C 245.671875 237.203125 246.101562 237.84375 246.105469 238.5625 C 246.257812 258.605469 245.160156 281.316406 243.167969 299.304688 C 243.070312 300.222656 242.289062 300.898438 241.390625 300.898438 Z M 241.386719 300.898438 " fill-opacity="1" fill-rule="nonzero"/><path fill="#531139" d="M 178.082031 152.125 C 175.761719 152.125 173.636719 151.308594 172.191406 149.789062 C 170.910156 148.441406 170.292969 146.402344 170.589844 144.472656 C 170.683594 143.855469 170.867188 143.277344 171.128906 142.75 C 168.535156 140.910156 167.003906 137.445312 167.660156 134.191406 C 168.460938 130.242188 172.074219 127.15625 176.269531 126.84375 C 180.070312 126.566406 183.996094 128.574219 186.21875 131.96875 C 186.761719 132.792969 186.527344 133.902344 185.703125 134.449219 C 184.875 134.992188 183.769531 134.761719 183.222656 133.933594 C 181.726562 131.648438 179.0625 130.238281 176.53125 130.421875 C 173.996094 130.609375 171.640625 132.578125 171.171875 134.910156 C 170.699219 137.261719 172.265625 139.882812 174.460938 140.421875 C 175.175781 140.59375 175.714844 141.195312 175.8125 141.925781 C 175.914062 142.65625 175.550781 143.371094 174.910156 143.730469 C 174.355469 144.039062 174.183594 144.671875 174.132812 145.019531 C 174.003906 145.851562 174.269531 146.78125 174.789062 147.328125 C 176.105469 148.710938 178.382812 148.710938 179.921875 148.296875 C 180.878906 148.03125 181.863281 148.601562 182.121094 149.554688 C 182.378906 150.511719 181.816406 151.492188 180.863281 151.75 C 179.929688 152.003906 178.996094 152.128906 178.09375 152.128906 Z M 178.082031 152.125 " fill-opacity="1" fill-rule="nonzero"/><path fill="#531139" d="M 204.992188 137.019531 C 204.84375 137.019531 204.703125 137.003906 204.554688 136.964844 C 203.597656 136.722656 203.015625 135.753906 203.257812 134.792969 C 203.929688 132.105469 203.613281 129.421875 202.394531 127.417969 C 201.117188 125.324219 198.722656 124.050781 196.558594 124.324219 C 194.417969 124.597656 192.566406 126.632812 192.671875 128.597656 C 192.730469 129.585938 191.972656 130.425781 190.984375 130.484375 C 189.996094 130.515625 189.15625 129.785156 189.097656 128.796875 C 189.078125 128.460938 188.839844 128.203125 188.652344 128.039062 C 188.199219 127.660156 187.527344 127.460938 186.964844 127.539062 C 185.839844 127.679688 184.65625 128.492188 183.449219 129.949219 C 182.820312 130.707031 181.695312 130.8125 180.933594 130.179688 C 180.167969 129.546875 180.070312 128.417969 180.699219 127.660156 C 182.503906 125.488281 184.464844 124.25 186.511719 123.988281 C 187.742188 123.824219 189.050781 124.105469 190.144531 124.734375 C 191.378906 122.664062 193.585938 121.089844 196.109375 120.773438 C 199.664062 120.328125 203.425781 122.242188 205.449219 125.550781 C 207.167969 128.363281 207.636719 132.050781 206.730469 135.664062 C 206.527344 136.480469 205.796875 137.023438 204.996094 137.023438 Z M 204.992188 137.019531 " fill-opacity="1" fill-rule="nonzero"/><path fill="#531139" d="M 224.082031 91.613281 C 224.03125 91.613281 223.984375 91.613281 223.9375 91.605469 C 213.015625 90.742188 201.921875 90.25 190.960938 90.144531 C 190.148438 90.132812 189.449219 89.585938 189.246094 88.808594 C 188.160156 84.65625 187.769531 80.382812 188.09375 76.09375 C 188.164062 75.214844 188.851562 74.519531 189.722656 74.441406 C 201.890625 73.402344 213.617188 74.074219 224.964844 74.738281 C 225.4375 74.761719 225.882812 74.980469 226.199219 75.332031 C 226.511719 75.6875 226.675781 76.152344 226.644531 76.628906 L 225.863281 89.921875 C 225.835938 90.402344 225.613281 90.855469 225.253906 91.167969 C 224.921875 91.453125 224.507812 91.613281 224.074219 91.613281 Z M 192.390625 86.578125 C 202.371094 86.703125 212.449219 87.144531 222.398438 87.898438 L 222.964844 78.214844 C 212.796875 77.628906 202.3125 77.109375 191.574219 77.894531 C 191.480469 80.816406 191.753906 83.726562 192.382812 86.582031 Z M 192.390625 86.578125 " fill-opacity="1" fill-rule="nonzero"/><path fill="#531139" d="M 147.621094 90.265625 L 147.609375 90.265625 L 118.875 90.128906 C 117.9375 90.125 117.164062 89.402344 117.097656 88.464844 L 116.234375 76.78125 C 116.199219 76.300781 116.359375 75.816406 116.691406 75.453125 C 117.019531 75.089844 117.480469 74.878906 117.96875 74.863281 L 121.355469 74.761719 C 130.214844 74.496094 140.265625 74.183594 148.332031 74.484375 C 148.808594 74.5 149.261719 74.710938 149.585938 75.0625 C 149.914062 75.421875 150.074219 75.890625 150.054688 76.367188 L 149.414062 88.570312 C 149.359375 89.523438 148.578125 90.269531 147.625 90.269531 Z M 120.542969 86.550781 L 145.925781 86.671875 L 146.382812 78.003906 C 138.769531 77.8125 129.617188 78.09375 121.464844 78.339844 L 119.945312 78.386719 Z M 120.542969 86.550781 " fill-opacity="1" fill-rule="nonzero"/><path fill="#531139" d="M 176.710938 373.128906 C 160.320312 373.128906 143.894531 371.210938 128.101562 367.410156 C 121.710938 365.867188 115.324219 363.691406 111.890625 358.199219 C 109.460938 354.3125 109.167969 349.484375 108.949219 345.953125 C 108.121094 332.292969 107.792969 318.441406 107.96875 304.78125 C 107.980469 303.792969 108.75 302.929688 109.78125 303.015625 C 110.769531 303.023438 111.558594 303.839844 111.546875 304.828125 C 111.367188 318.398438 111.699219 332.167969 112.519531 345.738281 C 112.765625 349.808594 113.117188 353.417969 114.921875 356.300781 C 117.671875 360.699219 123.28125 362.566406 128.933594 363.921875 C 154.445312 370.066406 181.640625 371.195312 207.566406 367.195312 C 208.550781 367.046875 209.460938 367.714844 209.605469 368.691406 C 209.757812 369.671875 209.085938 370.585938 208.109375 370.734375 C 197.777344 372.328125 187.242188 373.121094 176.699219 373.121094 Z M 176.710938 373.128906 " fill-opacity="1" fill-rule="nonzero"/><path fill="#531139" d="M 257.710938 166.738281 C 268.832031 164.269531 279.390625 159.328125 288.988281 150.488281 C 300.308594 159.601562 310.371094 170.714844 316.136719 184.058594 C 321.902344 197.40625 322.976562 213.195312 316.898438 226.398438 C 310.882812 239.464844 297.96875 249.035156 283.761719 251.238281 C 269.558594 253.445312 254.472656 248.328125 244 236.550781 C 243.972656 230.792969 238.421875 225.671875 232.683594 226.113281 C 233.550781 222.984375 233.910156 219.644531 233.128906 216.496094 C 232.359375 213.34375 230.339844 210.398438 227.402344 209.019531 C 224.464844 207.640625 220.621094 208.097656 218.261719 211.21875 L 214.03125 206.0625 C 212.707031 206.179688 211.378906 206.300781 210.054688 206.414062 C 212.25 202.816406 212.082031 197.914062 209.648438 194.476562 C 207.214844 191.035156 202.652344 189.25 198.496094 190.296875 C 192.59375 186.609375 187.058594 182.125 183.140625 176.371094 C 179.21875 170.613281 177.03125 163.472656 178.152344 156.597656 C 179.929688 145.722656 189.945312 137.378906 200.78125 135.417969 C 211.621094 133.457031 222.867188 136.984375 232.199219 142.832031 C 241.535156 148.675781 249.265625 156.703125 257.707031 166.734375 Z M 257.710938 166.738281 " fill-opacity="1" fill-rule="nonzero"/><path fill="#531139" d="M 344.078125 310.761719 C 337.621094 290.777344 316.511719 277.785156 295.539062 276.992188 C 274.570312 276.191406 254.257812 285.871094 238.308594 299.519531 C 233.582031 303.566406 228.789062 308.152344 222.660156 309.222656 C 215.328125 310.492188 207.492188 306.386719 200.535156 309.019531 C 195.753906 310.832031 192.546875 315.570312 191.300781 320.535156 C 190.0625 325.5 190.492188 330.71875 191.085938 335.800781 C 192.378906 346.851562 194.902344 358.726562 203.300781 366.011719 C 211.734375 373.328125 223.847656 374.105469 235.007812 374.335938 C 264.742188 374.964844 295.941406 373.890625 321.796875 359.183594 C 329.6875 354.695312 337.050781 348.835938 341.691406 341.03125 C 346.332031 333.222656 348.074219 323.183594 344.070312 310.769531 Z M 344.078125 310.761719 " fill-opacity="1" fill-rule="nonzero"/><path fill="#531139" d="M 111.332031 355.578125 C 110.894531 338.535156 110.460938 321.492188 110.023438 304.445312 C 117.679688 306.222656 126.589844 307.378906 135.214844 305.65625 C 143.835938 303.929688 152.273438 298.78125 155.617188 290.636719 C 158.847656 282.761719 156.757812 273.53125 152.40625 266.214844 C 148.050781 258.898438 141.675781 253.046875 135.65625 247.035156 C 129.632812 241.023438 123.738281 234.515625 120.753906 226.542969 C 116.792969 215.957031 118.484375 203.921875 122.929688 193.535156 C 127.378906 183.144531 134.363281 174.082031 142.398438 166.34375 C 132.394531 163.628906 123.667969 156.554688 118.875 148.695312 C 96.601562 164.15625 77.8125 185.910156 70.316406 211.980469 C 62.824219 238.050781 68.152344 268.535156 86.757812 284.449219 C 79.773438 291.078125 72.78125 297.707031 65.796875 304.335938 C 64.710938 305.367188 63.546875 306.4375 62.085938 306.753906 C 58.664062 307.492188 56.039062 303.988281 53.4375 301.644531 C 49.171875 297.816406 42.609375 296.628906 37.421875 299.070312 C 30.988281 302.097656 27.863281 309.683594 27.503906 316.789062 C 26.589844 334.949219 40.542969 351.566406 57.550781 357.953125 C 74.558594 364.335938 93.714844 362.113281 111.332031 355.585938 Z M 111.332031 355.578125 " fill-opacity="1" fill-rule="nonzero"/><path fill="#531139" d="M 183.894531 116.261719 C 183.382812 115.503906 182.246094 115.308594 181.472656 115.777344 C 180.964844 116.03125 181.117188 115.988281 181.535156 115.796875 C 180.832031 116.035156 180.226562 116.457031 179.585938 116.8125 C 179.355469 116.980469 178.378906 117.429688 177.90625 117.644531 C 173.726562 119.039062 173.3125 118.363281 170.613281 113.636719 C 170.203125 113.011719 169.875 112.304688 169.53125 111.609375 C 173.617188 110.558594 176.136719 108.585938 178.367188 106.335938 C 179.125 105.574219 179.902344 104.625 179.777344 103.550781 C 179.585938 102 177.726562 101.347656 176.1875 101.101562 C 172.71875 100.546875 169.191406 100.34375 165.683594 100.5 C 163.589844 100.597656 161.238281 100.960938 160.007812 102.65625 C 158.523438 104.71875 159.566406 107.8125 161.558594 109.390625 C 162.367188 110.03125 163.289062 110.480469 164.253906 110.820312 C 161.558594 115.460938 158.601562 118.324219 155.742188 118.414062 C 152.808594 118.371094 153.8125 118.308594 151.519531 116.941406 C 149.515625 115.949219 147.589844 118.832031 149.226562 120.351562 C 152.441406 123.582031 157.824219 123.242188 161.421875 120.847656 C 163.636719 119.363281 165.28125 117.246094 166.601562 114.945312 C 168.597656 119.175781 171.359375 123.515625 176.710938 122.457031 C 178.835938 122.152344 186.03125 119.023438 183.894531 116.265625 Z M 183.894531 116.261719 " fill-opacity="1" fill-rule="nonzero"/><path fill="#531139" d="M 126.605469 48.214844 C 118.128906 41.917969 114.117188 30.179688 116.972656 20.011719 C 119.824219 9.832031 129.351562 1.898438 139.863281 0.941406 C 150.375 -0.015625 161.179688 6.066406 165.828125 15.550781 C 149.039062 21.347656 134.472656 33.328125 126.605469 48.210938 Z M 126.605469 48.214844 " fill-opacity="1" fill-rule="nonzero"/><path fill="#531139" d="M 251.75 19.414062 C 256.601562 9.601562 267.785156 3.308594 278.6875 4.265625 C 289.585938 5.222656 299.503906 13.367188 302.574219 23.882812 C 305.640625 34.394531 301.664062 46.601562 292.992188 53.28125 C 283.941406 37.972656 269.476562 25.941406 251.75 19.414062 Z M 251.75 19.414062 " fill-opacity="1" fill-rule="nonzero"/><path fill="#531139" d="M 337.039062 310.152344 C 336.9375 310.152344 336.835938 310.140625 336.730469 310.125 C 335.757812 309.957031 335.101562 309.03125 335.273438 308.054688 C 339.5625 283.308594 335.550781 244.167969 316.910156 212.5 C 316.410156 211.648438 316.6875 210.550781 317.539062 210.050781 C 318.390625 209.550781 319.484375 209.828125 319.988281 210.683594 C 339.089844 243.132812 343.199219 283.277344 338.792969 308.667969 C 338.640625 309.542969 337.886719 310.152344 337.035156 310.152344 Z M 337.039062 310.152344 " fill-opacity="1" fill-rule="nonzero"/><path fill="#531139" d="M 294.605469 118.621094 C 293.957031 120.085938 293.25 121.527344 292.707031 123.035156 C 292.234375 124.15625 292.359375 125.6875 293.71875 126.054688 C 295.019531 126.429688 295.851562 125.207031 296.386719 124.203125 C 297.042969 122.792969 297.902344 121.394531 298.320312 119.910156 C 298.730469 117.8125 295.609375 116.753906 294.605469 118.628906 Z M 294.605469 118.621094 " fill-opacity="1" fill-rule="nonzero"/><path fill="#531139" d="M 290.175781 130.070312 C 289.402344 130.117188 288.84375 130.746094 288.449219 131.359375 C 287.046875 133.46875 287.414062 133.167969 285.882812 134.660156 C 285.535156 135.144531 285.015625 134.820312 284.332031 136.445312 C 283.726562 138.378906 286.050781 140.167969 287.761719 139.085938 C 290.046875 137.429688 292.308594 134.949219 292.386719 131.988281 C 292.378906 130.851562 291.316406 129.84375 290.167969 130.0625 Z M 290.175781 130.070312 " fill-opacity="1" fill-rule="nonzero"/><path fill="#531139" d="M 287.320312 120.183594 C 285.902344 120.421875 285.046875 121.851562 284.210938 122.898438 C 283.484375 124.09375 282.277344 125.160156 282.007812 126.554688 C 281.511719 129.070312 285.253906 130.335938 286.453125 128.089844 C 287.347656 126.714844 288.378906 125.398438 289.054688 123.894531 C 290.03125 122.363281 289.46875 119.90625 287.320312 120.183594 Z M 287.320312 120.183594 " fill-opacity="1" fill-rule="nonzero"/><path fill="#531139" d="M 323.753906 242.289062 C 323.585938 241.675781 323.167969 241.136719 322.617188 240.816406 C 320.808594 239.675781 318.359375 241.558594 318.996094 243.605469 C 319.878906 246.046875 320.546875 248.59375 321.707031 250.921875 C 322.796875 253.089844 326.058594 252.367188 325.976562 249.890625 C 325.691406 247.257812 324.503906 244.816406 323.753906 242.289062 Z M 323.753906 242.289062 " fill-opacity="1" fill-rule="nonzero"/><path fill="#531139" d="M 327.542969 262.175781 C 327.148438 260.804688 327.335938 258.96875 325.945312 258.164062 C 324.230469 257.085938 321.910156 258.871094 322.511719 260.804688 C 323.085938 262.785156 322.953125 265.125 324.1875 266.824219 C 325.191406 267.917969 327.042969 267.761719 327.722656 266.398438 C 328.417969 265.070312 327.742188 263.550781 327.542969 262.175781 Z M 327.542969 262.175781 " fill-opacity="1" fill-rule="nonzero"/><path fill="#531139" d="M 318.125 259.066406 C 317.710938 257.648438 317.671875 256 316.847656 254.757812 C 315.347656 252.574219 311.710938 254.414062 312.5 256.925781 C 313.277344 259.074219 313.277344 262.511719 315.414062 263.734375 C 316.453125 264.257812 317.917969 263.664062 318.304688 262.558594 C 318.765625 261.457031 318.28125 260.191406 318.117188 259.066406 Z M 318.125 259.066406 " fill-opacity="1" fill-rule="nonzero"/></svg>